<?xml version="1.0" encoding="utf-8"?>
<!-- Generator: Adobe Illustrator 26.2.0, SVG Export Plug-In . SVG Version: 6.00 Build 0)  -->
<svg version="1.1" id="Calque_1" xmlns="http://www.w3.org/2000/svg" xmlns:xlink="http://www.w3.org/1999/xlink" x="0px" y="0px"
	 viewBox="0 0 266 366.9" style="enable-background:new 0 0 266 366.9;" xml:space="preserve">
<g>
	<path d="M61.1,86.8c0.3-7.2,0.4-13.8,1-20.3c2.9-32.2,30.7-59.5,62.8-63c37.3-4.1,72.6,21.5,78.8,59.3c0.7,4.5,0.9,9.2,1.1,13.8
		c0.2,3.2,0,6.4,0,9.9c5.6,0.4,11,0.4,16.2,1.1c17.2,2.2,31.5,17.2,32.5,34.5c1.4,24.9,2.5,49.8,3.8,74.7
		c1.4,28.8,2.9,57.5,4.3,86.3c0.6,13,1.5,25.9,1.6,38.9c0.3,22.5-16.6,39.7-39.1,40c-12.5,0.2-25,0-37.4,0c-47.8,0-95.6,0-143.4,0
		c-19,0-34.2-11.3-38.9-28.9c-0.9-3.3-1.4-6.9-1.3-10.3c0.7-18.6,1.5-37.1,2.4-55.7c0.9-18.6,1.8-37.1,2.8-55.7
		c1.5-30,2.8-60,4.5-90c1.1-18.5,18-33.7,37.7-34.4C53.8,86.7,57.3,86.8,61.1,86.8z M133.1,338.3c30.1,0,60.1,0,90.2,0
		c10.4,0,16.7-6.6,16.4-17c-0.2-6.1-0.6-12.2-0.8-18.3c-1.1-23.7-2.1-47.3-3.3-71c-1.7-35-3.4-70-5-105c-0.5-10.5-6.6-16.6-17-16.6
		c-53.6,0-107.3,0-160.9,0c-10.3,0-16.5,6.1-17,16.3c-1.3,28.3-2.6,56.6-3.9,84.8c-1.7,36.4-3.5,72.7-5.2,109.1
		c-0.5,11.4,5.7,17.7,17.2,17.7C73.5,338.3,103.3,338.3,133.1,338.3z M180.9,86.6c3-24.2-6.1-44-24.4-54.1
		c-17.1-9.4-38.5-7.7-53.4,4.5c-16.8,13.8-20,31.6-17.4,49.6C117.3,86.6,149,86.6,180.9,86.6z"/>
</g>
</svg>
